<?xml version="1.0" encoding="utf-8"?>
<!-- Generator: Adobe Illustrator 12.0.0, SVG Export Plug-In . SVG Version: 6.00 Build 51448)  -->
<!DOCTYPE svg PUBLIC "-//W3C//DTD SVG 1.1//EN" "http://www.w3.org/Graphics/SVG/1.1/DTD/svg11.dtd" [
	<!ENTITY ns_svg "http://www.w3.org/2000/svg">
	<!ENTITY ns_xlink "http://www.w3.org/1999/xlink">
]>
<svg  version="1.1" xmlns="&ns_svg;" xmlns:xlink="&ns_xlink;" width="201.617" height="201.616" viewBox="0 0 201.617 201.616"
	 overflow="visible" enable-background="new 0 0 201.617 201.616" xml:space="preserve">
<g id="rest">
	<g>
		<path d="M133.023,58.942c0,6.664-5.396,12.06-12.064,12.06c-6.658,0-12.062-5.396-12.062-12.06
			c0-6.665,5.399-12.064,12.062-12.064C127.626,46.878,133.023,52.278,133.023,58.942z M149.361,132.009
			c6.101-11.99,0.836-22.075,0.843-22.086l-8.015-24.269h13.083l20.279,21.135c1.349-5.174,0.204-10.895-3.613-15.205
			l-13.231-13.902h-32.812c-4.583,0-11.299,3.517-14.993,8.107l-12.626,11.94H69.089c2.704,4.611,7.558,7.758,13.301,8.107h19.047
			l14.089-13.425l14.19,47.406l-19.24,40.394c-3.508,7.441-1.003,16.159,5.531,20.706
			C116.007,200.918,149.375,132.027,149.361,132.009z M164.482,154.448l-12.74-13.196l-6.369,14.754l11.857,12.281h24.731
			c8.222,0,15.032-5.99,16.356-13.839H164.482L164.482,154.448z"/>
		<path d="M67.761,40.98c-30.118,0-54.604,24.485-54.604,54.604c0,30.119,24.486,54.604,54.604,54.604
			c30.117,0,54.604-24.485,54.604-54.604C122.366,65.466,97.878,40.98,67.761,40.98z M67.761,47.806
			c26.428,0,47.779,21.352,47.779,47.778s-21.352,47.778-47.779,47.778s-47.779-21.352-47.779-47.778S41.333,47.806,67.761,47.806z
			 M67.761,61.457c-18.809,0-34.128,15.318-34.128,34.127s15.319,34.128,34.128,34.128c18.807,0,34.128-15.319,34.128-34.128
			S86.568,61.457,67.761,61.457z M67.761,68.282c15.121,0,27.303,12.184,27.303,27.302c0,15.119-12.182,27.302-27.303,27.302
			c-15.119,0-27.302-12.183-27.302-27.302C40.459,80.466,52.642,68.282,67.761,68.282z M67.761,81.934
			c-7.537,0-13.651,6.112-13.651,13.65s6.114,13.651,13.651,13.651c7.54,0,13.651-6.113,13.651-13.651S75.301,81.934,67.761,81.934z
			"/>
		<g>
			<path d="M164.956,0H36.659C16.495,0,0,16.495,0,36.66v128.297c0,20.164,16.495,36.659,36.659,36.659h128.297
				c20.163,0,36.661-16.495,36.661-36.659V36.66C201.617,16.495,185.119,0,164.956,0z M183.285,164.957
				c0,10.108-8.219,18.33-18.329,18.33H36.659c-10.109,0-18.33-8.222-18.33-18.33V36.66c0-10.109,8.221-18.331,18.33-18.331h128.297
				c10.11,0,18.329,8.222,18.329,18.331V164.957z"/>
		</g>
	</g>
</g>
<g id="target1">
</g>
<g id="pfeil" display="none">
	<g display="inline">
		<polygon points="62.039,182.786 77.074,168.492 92.76,168.492 82.9,177.835 109.757,177.835 109.757,182.786 109.757,187.738 
			82.9,187.738 92.76,197.08 77.074,197.078 		"/>
		<path d="M77.038,168.401h15.954l-9.86,9.342h26.717v10.087H83.131l9.86,9.342H77.038l-0.028-0.026l-15.104-14.359l0.07-0.066
			L77.038,168.401z M92.531,168.585H77.11l-14.938,14.201l14.938,14.201h15.42l-9.861-9.342h26.996v-9.718H82.67L92.531,168.585z"/>
	</g>
</g>
<g id="Ebene_2">
</g>
</svg>
