<?xml version="1.0" encoding="utf-8"?>
<!-- Generator: Adobe Illustrator 12.0.0, SVG Export Plug-In . SVG Version: 6.00 Build 51448)  -->
<!DOCTYPE svg PUBLIC "-//W3C//DTD SVG 1.1//EN" "http://www.w3.org/Graphics/SVG/1.1/DTD/svg11.dtd" [
	<!ENTITY ns_svg "http://www.w3.org/2000/svg">
	<!ENTITY ns_xlink "http://www.w3.org/1999/xlink">
]>
<svg  version="1.1" xmlns="&ns_svg;" xmlns:xlink="&ns_xlink;" width="210" height="210" viewBox="0 0 210 210"
	 overflow="visible" enable-background="new 0 0 210 210" xml:space="preserve">
<g id="pfeil">
</g>
<g id="w">
	<path fill="#FFFFFF" d="M197.28,184.506c0,6.627-5.373,12-12,12H23.78c-6.627,0-12-5.373-12-12v-156.5c0-6.627,5.373-12,12-12
		h161.5c6.627,0,12,5.373,12,12V184.506z"/>
</g>
<g id="rest">
	<path d="M137.215,63.134c0,6.664-5.396,12.06-12.064,12.06c-6.658,0-12.062-5.396-12.062-12.06c0-6.665,5.399-12.064,12.062-12.064
		C131.819,51.07,137.215,56.47,137.215,63.134z M153.553,136.201c6.101-11.99,0.836-22.075,0.843-22.086l-8.015-24.269h13.083
		l20.279,21.135c1.349-5.174,0.204-10.895-3.613-15.205l-13.231-13.902h-32.812c-4.583,0-11.299,3.517-14.993,8.107l-12.626,11.94
		H73.282c2.704,4.611,7.558,7.758,13.301,8.107h19.047l14.089-13.425l14.19,47.406l-19.24,40.394
		c-3.508,7.441-1.003,16.159,5.531,20.706C120.2,205.11,153.568,136.219,153.553,136.201z M168.674,158.64l-12.74-13.196
		l-6.369,14.754l11.857,12.281h24.731c8.222,0,15.032-5.99,16.356-13.839H168.674L168.674,158.64z"/>
	<path d="M71.954,45.172c-30.118,0-54.604,24.485-54.604,54.604c0,30.119,24.486,54.604,54.604,54.604
		c30.117,0,54.604-24.485,54.604-54.604C126.558,69.658,102.071,45.172,71.954,45.172z M71.954,51.998
		c26.428,0,47.779,21.352,47.779,47.778s-21.352,47.778-47.779,47.778s-47.779-21.352-47.779-47.778S45.526,51.998,71.954,51.998z
		 M71.954,65.649c-18.809,0-34.128,15.318-34.128,34.127s15.319,34.128,34.128,34.128c18.807,0,34.128-15.319,34.128-34.128
		S90.76,65.649,71.954,65.649z M71.954,72.474c15.121,0,27.303,12.184,27.303,27.302c0,15.119-12.182,27.302-27.303,27.302
		c-15.119,0-27.302-12.183-27.302-27.302C44.651,84.658,56.834,72.474,71.954,72.474z M71.954,86.125
		c-7.537,0-13.651,6.112-13.651,13.65s6.114,13.651,13.651,13.651c7.54,0,13.651-6.113,13.651-13.651S79.494,86.125,71.954,86.125z"
		/>
</g>
<g id="target1">
	<path fill="#FFFFFF" d="M171.815,0H38.184C17.182,0,0,17.181,0,38.184v133.632C0,192.819,17.182,210,38.184,210h133.631
		C192.817,210,210,192.819,210,171.816V38.184C210,17.181,192.817,0,171.815,0z M190.907,171.816
		c0,10.528-8.562,19.093-19.092,19.093H38.184c-10.53,0-19.092-8.564-19.092-19.093V38.184c0-10.529,8.563-19.092,19.092-19.092
		h133.631c10.53,0,19.092,8.563,19.092,19.092V171.816z"/>
</g>
<g id="Ebene_6">
</g>
<g id="Ebene_2">
	<path d="M169.148,4.192H40.851c-20.164,0-36.659,16.495-36.659,36.66v128.297c0,20.164,16.495,36.659,36.659,36.659h128.297
		c20.163,0,36.661-16.495,36.661-36.659V40.852C205.809,20.687,189.311,4.192,169.148,4.192z M187.477,169.149
		c0,10.108-8.219,18.33-18.329,18.33H40.851c-10.109,0-18.33-8.222-18.33-18.33V40.852c0-10.109,8.221-18.331,18.33-18.331h128.297
		c10.11,0,18.329,8.222,18.329,18.331V169.149z"/>
</g>
<g id="Ebene_5">
</g>
</svg>
